<?xml version="1.0" encoding="UTF-8"?>
<svg version="1.1" xmlns="http://www.w3.org/2000/svg" width="512" height="512">
<path d="M0 0 C3.96667341 2.58696092 7.21119627 5.43908771 8.50420284 10.18393993 C8.91637482 13.1752777 8.99783376 16.03666933 8.99525452 19.05696106 C8.99731651 20.92259201 8.99731651 20.92259201 8.99942017 22.82591248 C8.99588151 24.19619775 8.99224671 25.56648278 8.98852539 26.93676758 C8.98824319 28.38576251 8.9884019 29.83475759 8.9889679 31.28375244 C8.98925459 35.21102962 8.98337853 39.1382762 8.97639394 43.06554627 C8.9701391 47.17216985 8.96955491 51.27879415 8.96836853 55.38542175 C8.9652615 63.15906682 8.95705657 70.93269781 8.94701904 78.70633668 C8.93583841 87.55755193 8.93034253 96.40876787 8.92532361 105.25998843 C8.91487344 123.46500026 8.89728615 141.669999 8.875 159.875 C9.6680957 160.17535156 10.46119141 160.47570312 11.27832031 160.78515625 C15.4520926 162.53691626 17.85203799 165.82907599 19.875 169.875 C20.1141169 173.3697236 20.06018692 176.87299489 20.0625 180.375 C20.07474609 181.35082031 20.08699219 182.32664063 20.09960938 183.33203125 C20.10250977 184.73001953 20.10250977 184.73001953 20.10546875 186.15625 C20.10957764 187.01283203 20.11368652 187.86941406 20.11791992 188.75195312 C19.875 190.875 19.875 190.875 17.875 192.875 C15.4921875 193.0703125 15.4921875 193.0703125 12.75 193 C11.83992188 192.98195313 10.92984375 192.96390625 9.9921875 192.9453125 C9.29351562 192.92210937 8.59484375 192.89890625 7.875 192.875 C8.60828233 196.13129854 8.60828233 196.13129854 11.75 197.6875 C15.3760092 200.22570644 16.45906632 201.70586193 17.875 205.875 C18.66349568 211.209514 18.28886446 215.80663034 15.26171875 220.36328125 C12.04916242 223.86542013 8.31065908 225.71014998 3.56640625 226.03125 C-1.59077391 225.6833795 -5.13796235 224.29246085 -9.125 220.875 C-11.15573919 218.23503905 -12.02985613 216.5410071 -12.5 213.25 C-12.125 210.875 -12.125 210.875 -10.9375 209.0625 C-8.40874096 207.40572684 -7.091479 207.29617483 -4.125 207.875 C-3.485625 208.679375 -2.84625 209.48375 -2.1875 210.3125 C-0.3067857 213.17698412 -0.3067857 213.17698412 3.125 213.6875 C4.0325 213.749375 4.94 213.81125 5.875 213.875 C5.875 211.565 5.875 209.255 5.875 206.875 C4.76125 206.606875 3.6475 206.33875 2.5 206.0625 C-1.125 204.875 -1.125 204.875 -3.125 201.875 C-3.3203125 199.61328125 -3.3203125 199.61328125 -3.25 197.1875 C-3.23195313 196.37925781 -3.21390625 195.57101562 -3.1953125 194.73828125 C-3.16050781 193.81595703 -3.16050781 193.81595703 -3.125 192.875 C-4.383125 192.936875 -5.64125 192.99875 -6.9375 193.0625 C-9.51642987 193.18933262 -10.66918342 193.23146037 -12.7277832 191.62158203 C-14.45262541 189.46545393 -14.51096892 188.37119761 -14.5234375 185.63671875 C-14.52730469 184.81623047 -14.53117187 183.99574219 -14.53515625 183.15039062 C-14.51775391 181.86938477 -14.51775391 181.86938477 -14.5 180.5625 C-14.51160156 179.72009766 -14.52320313 178.87769531 -14.53515625 178.00976562 C-14.50766845 172.15028215 -13.75040034 167.68745176 -9.58984375 163.23046875 C-5.34722222 159.98611111 -5.34722222 159.98611111 -3.125 158.875 C-3.125 117.295 -3.125 75.715 -3.125 32.875 C-6.095 35.845 -9.065 38.815 -12.125 41.875 C-14.01687331 43.51302448 -15.90898368 45.15078676 -17.8059082 46.78295898 C-22.73065431 51.22554762 -27.35003938 55.99412099 -32.02326965 60.69810486 C-34.00637034 62.69411524 -35.99270574 64.68685706 -37.9798584 66.67883301 C-42.1977385 70.90807105 -46.41166552 75.14123403 -50.625 79.375 C-55.51226833 84.2859679 -60.40119714 89.19525891 -65.29438782 94.10032654 C-67.23948045 96.05184251 -69.18150666 98.00637385 -71.12341309 99.96105957 C-80.90139721 109.77915484 -80.90139721 109.77915484 -85.11132812 113.36132812 C-90.79180472 118.19761706 -95.95409619 123.59494001 -101.20846558 128.88330078 C-103.22517306 130.91291415 -105.24511221 132.93926258 -107.26586914 134.96484375 C-111.55507795 139.26541234 -115.84033475 143.56990526 -120.125 147.875 C-125.09487582 152.86857243 -130.0664103 157.86047009 -135.04220581 162.84814453 C-137.02053614 164.83289986 -138.99580129 166.82067023 -140.97094727 168.80859375 C-146.17652829 174.0351723 -151.36311114 179.1760983 -156.98388672 183.95874023 C-161.86266331 188.32516184 -166.41024085 193.05471863 -171.02326965 197.69810486 C-173.00637034 199.69411524 -174.99270574 201.68685706 -176.9798584 203.67883301 C-181.1977385 207.90807105 -185.41166552 212.14123403 -189.625 216.375 C-194.51226833 221.2859679 -199.40119714 226.19525891 -204.29438782 231.10032654 C-206.23948045 233.05184251 -208.18150666 235.00637385 -210.12341309 236.96105957 C-220.76466147 247.64624758 -220.76466147 247.64624758 -226.5042572 252.50094604 C-229.51040315 255.04953471 -232.35459336 257.76206942 -235.1875 260.5 C-235.77982422 261.0465625 -236.37214844 261.593125 -236.98242188 262.15625 C-240.24670917 265.21308606 -240.24670917 265.21308606 -241.18359375 269.3984375 C-240.1721005 271.94022758 -240.1721005 271.94022758 -238.58374023 274.34350586 C-236.56401185 279.23310772 -236.69504293 283.61545845 -236.7265625 288.85546875 C-236.72225723 290.43017693 -236.72225723 290.43017693 -236.71786499 292.03669739 C-236.71582915 294.24802187 -236.72132532 296.45936456 -236.73388672 298.6706543 C-236.74999497 302.06144163 -236.73399637 305.45104568 -236.71484375 308.84179688 C-236.71682532 310.99219013 -236.72066721 313.14258266 -236.7265625 315.29296875 C-236.72048981 316.30860397 -236.71441711 317.3242392 -236.7081604 318.37065125 C-236.71761688 319.3120546 -236.72707336 320.25345795 -236.73681641 321.22338867 C-236.73920319 322.05134445 -236.74158997 322.87930023 -236.74404907 323.73234558 C-237.21310951 326.37057098 -238.02449161 327.25979743 -240.125 328.875 C-242.11791992 329.21557617 -242.11791992 329.21557617 -244.35546875 329.16796875 C-245.15791016 329.15830078 -245.96035156 329.14863281 -246.78710938 329.13867188 C-247.62048828 329.11353516 -248.45386719 329.08839844 -249.3125 329.0625 C-250.15748047 329.04896484 -251.00246094 329.03542969 -251.87304688 329.02148438 C-253.95730384 328.98615799 -256.04123277 328.93235139 -258.125 328.875 C-258.125 330.855 -258.125 332.835 -258.125 334.875 C-257.568694 334.86611755 -257.012388 334.85723511 -256.43922424 334.8480835 C-250.61494286 334.75913993 -244.79085646 334.69907216 -238.96606445 334.65527344 C-236.79638829 334.63523919 -234.62676557 334.60800388 -232.45727539 334.57324219 C-229.326851 334.524363 -226.19714452 334.50194875 -223.06640625 334.484375 C-221.62679283 334.45340729 -221.62679283 334.45340729 -220.15809631 334.42181396 C-212.7163656 334.41937086 -206.56863529 335.98326619 -200.78515625 340.83984375 C-200.25792969 341.49082031 -199.73070312 342.14179688 -199.1875 342.8125 C-198.64222656 343.46089844 -198.09695313 344.10929687 -197.53515625 344.77734375 C-193.48085133 350.80826271 -193.40773119 356.81266098 -194.125 363.875 C-195.88124902 370.45537606 -200.52672384 375.18930217 -206.125 378.875 C-210.83810987 380.79490758 -215.12464249 381.16371509 -220.1509552 381.14242554 C-220.94194081 381.14695665 -221.73292643 381.15148776 -222.54788131 381.15615618 C-225.18928878 381.16878179 -227.83048958 381.16718101 -230.47192383 381.16552734 C-232.36951461 381.17151375 -234.26710296 381.17831955 -236.16468811 381.18588257 C-241.31354628 381.20353849 -246.46233795 381.20823778 -251.61122346 381.20951414 C-254.82986469 381.21093654 -258.04848905 381.21520784 -261.26712608 381.22050858 C-272.50109301 381.2390076 -283.73501249 381.24717936 -294.96899414 381.24560547 C-305.43227224 381.24440415 -315.89534403 381.26550503 -326.35856992 381.2970928 C-335.34900055 381.32326481 -344.33936383 381.33397237 -353.32983226 381.33269465 C-358.69623264 381.33218528 -364.06244966 381.33785451 -369.42881203 381.35905075 C-374.47762679 381.37844858 -379.52608355 381.37854693 -384.57491112 381.36401749 C-386.42396952 381.36193021 -388.27305041 381.36662543 -390.12207031 381.3787384 C-409.51992888 381.49754614 -409.51992888 381.49754614 -417.46484375 374.9453125 C-422.61456476 368.67499205 -424.64273645 363.64601423 -424.43359375 355.46484375 C-423.60477435 348.50905563 -420.52985548 343.57829437 -415.19921875 339.1640625 C-408.76329481 335.16433576 -403.70301671 334.45134361 -396.25390625 334.58203125 C-395.331577 334.58627609 -394.40924774 334.59052094 -393.45896912 334.59489441 C-390.53483965 334.61158636 -387.61141851 334.64922062 -384.6875 334.6875 C-382.69597355 334.70255911 -380.70443621 334.71624536 -378.71289062 334.72851562 C-373.84999062 334.76145878 -368.9876151 334.81317501 -364.125 334.875 C-364.125 332.895 -364.125 330.915 -364.125 328.875 C-364.77252668 328.87684359 -365.42005337 328.87868717 -366.08720207 328.88058662 C-381.82694491 328.92471298 -397.5666663 328.95783085 -413.30645561 328.97862434 C-420.91803073 328.98894662 -428.52956462 329.00302505 -436.14111328 329.02587891 C-442.77363268 329.04578375 -449.40612222 329.05870951 -456.03867066 329.06317699 C-459.55210256 329.06578932 -463.06544903 329.071949 -466.57885361 329.08646011 C-470.49643329 329.10251002 -474.41392861 329.10298156 -478.33154297 329.10205078 C-479.50254547 329.10924133 -480.67354797 329.11643188 -481.8800354 329.12384033 C-483.47443451 329.11971634 -483.47443451 329.11971634 -485.1010437 329.11550903 C-486.49202931 329.11827441 -486.49202931 329.11827441 -487.91111565 329.12109566 C-490.125 328.875 -490.125 328.875 -492.125 326.875 C-492.38569641 324.37011719 -492.38569641 324.37011719 -492.3996582 321.171875 C-492.40919022 319.97723633 -492.41872223 318.78259766 -492.42854309 317.55175781 C-492.42763168 316.25592773 -492.42672028 314.96009766 -492.42578125 313.625 C-492.4296667 312.28743354 -492.43400105 310.94986831 -492.43876648 309.61230469 C-492.44623289 306.80790203 -492.44593418 304.00362526 -492.44067383 301.19921875 C-492.43487461 297.60085421 -492.45181833 294.00300363 -492.4750185 290.40472412 C-492.48973072 287.64238459 -492.49063109 284.88016962 -492.48750877 282.11779785 C-492.48827366 280.14458962 -492.50216591 278.17140073 -492.51618958 276.19824219 C-492.50996078 275.00360352 -492.50373199 273.80896484 -492.49731445 272.578125 C-492.49794388 271.52270508 -492.4985733 270.46728516 -492.4992218 269.37988281 C-492.37572861 268.55327148 -492.25223541 267.72666016 -492.125 266.875 C-488.91214767 264.73309845 -488.05848992 264.62051453 -484.36042786 264.5965271 C-482.89017906 264.57978188 -482.89017906 264.57978188 -481.39022827 264.56269836 C-480.31632843 264.56053818 -479.24242859 264.55837799 -478.13598633 264.55615234 C-477.00413406 264.54610672 -475.8722818 264.5360611 -474.70613098 264.52571106 C-470.95643635 264.49476393 -467.20681348 264.47781174 -463.45703125 264.4609375 C-460.86056394 264.44223515 -458.26410276 264.42266245 -455.66764832 264.4022522 C-449.52664564 264.35608577 -443.38564683 264.31871297 -437.24456185 264.28557932 C-430.2530323 264.24736803 -423.26159601 264.19795531 -416.27014506 264.14759517 C-401.88850035 264.044254 -387.50679252 263.95500073 -373.125 263.875 C-374.99949985 260.26728984 -376.87650305 256.66088753 -378.75390625 253.0546875 C-379.27650024 252.04881592 -379.79909424 251.04294434 -380.33752441 250.0065918 C-383.83425347 243.29362719 -387.41117861 236.63008251 -391.0625 230 C-395.93014921 221.13182464 -400.62415334 212.18395384 -405.26708984 203.19628906 C-408.82218537 196.33237515 -412.46620454 189.5250885 -416.1875 182.75 C-417.65416147 180.06541342 -419.11939903 177.38005568 -420.58398438 174.69433594 C-421.66226917 172.72158042 -422.74464184 170.75105629 -423.83007812 168.78222656 C-425.54875815 165.65499705 -427.24503332 162.51647758 -428.9375 159.375 C-429.47189697 158.41319824 -430.00629395 157.45139648 -430.55688477 156.46044922 C-432.54973018 152.72490357 -434.0180033 149.6863141 -434.57421875 145.46875 C-432.83858697 142.36239016 -431.99697342 142.18727569 -428.7512207 140.9597168 C-427.84576004 140.61601044 -426.94029938 140.27230408 -426.00740051 139.91818237 C-421.24310467 138.1939149 -416.4589312 136.53989008 -411.65625 134.92578125 C-410.56440399 134.5562886 -409.47255798 134.18679596 -408.34762573 133.80610657 C-404.7742558 132.59740707 -401.19962329 131.39248719 -397.625 130.1875 C-395.09836554 129.33347779 -392.57181501 128.47921242 -390.04541016 127.62451172 C-386.17032037 126.31370202 -382.29516968 125.00307497 -378.41958618 123.69372559 C-367.43825859 119.98355993 -356.46365297 116.25379599 -345.4909668 112.51815796 C-325.04315078 105.55749673 -304.58588083 98.62484747 -284.12645721 91.6984024 C-266.12175868 85.60296113 -248.1202473 79.49830146 -230.125 73.375 C-210.79768495 66.79843151 -191.46273798 60.24455774 -172.12524414 53.69799805 C-154.12094287 47.60271169 -136.11991037 41.49796878 -118.125 35.375 C-99.53872089 29.05141784 -80.947755 22.74175015 -62.35351562 16.44161987 C-60.34963853 15.76258479 -58.34582899 15.08335076 -56.34204102 14.40405273 C-55.05159664 13.96662943 -53.76115069 13.52921076 -52.47070312 13.09179688 C-51.84204912 12.87867229 -51.21339512 12.66554771 -50.56569099 12.44596481 C-46.32444406 11.00861282 -42.08114614 9.57742088 -37.83740234 8.14746094 C-33.51197224 6.68860591 -29.19536563 5.20757882 -24.88525391 3.70410156 C-23.44500603 3.20778732 -23.44500603 3.20778732 -21.97566223 2.70144653 C-20.22079075 2.09650463 -18.46861274 1.48365741 -16.72001648 0.86080933 C-10.92718963 -1.12070606 -5.95218563 -2.14278683 0 0 Z M-11.3125 12.375 C-12.240625 13.2 -13.16875 14.025 -14.125 14.875 C-12.73167426 18.24220387 -11.1460714 19.8609524 -8.125 21.875 C-4.30706929 18.68962352 -4.30706929 18.68962352 -2.6875 14.1875 C-2.93526503 11.68917709 -2.93526503 11.68917709 -5.125 9.875 C-8.5116371 9.875 -8.90169287 10.23206033 -11.3125 12.375 Z M-44.23730469 21.82421875 C-45.16503268 22.13732734 -45.16503268 22.13732734 -46.11150265 22.45676136 C-48.17478692 23.15434881 -50.23580038 23.85841332 -52.296875 24.5625 C-53.75489802 25.05692412 -55.21305614 25.55094999 -56.67134094 26.04460144 C-60.59233496 27.37318165 -64.5114018 28.7073638 -68.43013382 30.04259872 C-72.52189465 31.43571666 -76.61541457 32.82364643 -80.70874023 34.2121582 C-89.49155196 37.192471 -98.27193131 40.17990185 -107.05168915 43.16919708 C-110.06373185 44.19456601 -113.07604633 45.21913537 -116.08837891 46.24365234 C-123.61295268 48.80295519 -131.13719461 51.36322383 -138.65991211 53.92797852 C-154.74503703 59.41137283 -170.84068781 64.86353995 -186.9375 70.3125 C-205.67095149 76.65409951 -224.40159103 83.00379369 -243.125 89.375 C-261.12144752 95.49874415 -279.12420533 101.60370911 -297.13009644 107.69961548 C-337.48336846 121.36141638 -377.82302884 135.06250164 -418.125 148.875 C-418.125 152.31061862 -417.62333922 152.91993507 -415.625 155.5859375 C-415.07577881 156.32529541 -414.52655762 157.06465332 -413.96069336 157.82641602 C-413.35491455 158.62619873 -412.74913574 159.42598145 -412.125 160.25 C-411.49924072 161.08781006 -410.87348145 161.92562012 -410.22875977 162.78881836 C-404.87790289 169.93365766 -399.44706158 177.01831743 -394.01953125 184.10498047 C-389.25077148 190.347867 -384.62545852 196.67921409 -380.05615234 203.06884766 C-375.2248046 209.79774836 -370.20677883 216.37646562 -365.1652832 222.94873047 C-359.86403117 229.87032645 -354.67503742 236.86840448 -349.55297852 243.92358398 C-349.01342529 244.66294189 -348.47387207 245.4022998 -347.91796875 246.1640625 C-347.4489917 246.81068848 -346.98001465 247.45731445 -346.49682617 248.12353516 C-345.14589497 249.84832257 -343.7066613 251.36180258 -342.125 252.875 C-342.05152344 251.08642578 -342.05152344 251.08642578 -341.9765625 249.26171875 C-341.90152396 247.69528932 -341.8259766 246.12888421 -341.75 244.5625 C-341.7190625 243.77681641 -341.688125 242.99113281 -341.65625 242.18164062 C-341.61757813 241.42431641 -341.57890625 240.66699219 -341.5390625 239.88671875 C-341.49193115 238.84197388 -341.49193115 238.84197388 -341.44384766 237.77612305 C-341.125 235.875 -341.125 235.875 -339.125 232.875 C-336.633077 232.57236762 -334.38787636 232.46537334 -331.89306641 232.48681641 C-331.14817459 232.48155945 -330.40328278 232.47630249 -329.63581848 232.47088623 C-327.16585504 232.45764978 -324.69653286 232.4664386 -322.2265625 232.4765625 C-320.51264319 232.47454237 -318.79872471 232.47163145 -317.08480835 232.46786499 C-313.488422 232.46343636 -309.89225888 232.46988831 -306.29589844 232.48388672 C-301.68660455 232.50095329 -297.07783565 232.49115706 -292.46856117 232.47316933 C-288.92721611 232.46232398 -285.38599528 232.46578171 -281.84464645 232.4735527 C-280.14538893 232.47555398 -278.44612012 232.47309798 -276.74687576 232.46611404 C-274.3695215 232.45848997 -271.99301392 232.47011761 -269.61572266 232.48681641 C-268.91323898 232.48074371 -268.21075531 232.47467102 -267.48698425 232.46841431 C-263.41802373 232.52132953 -261.0885718 233.01994588 -258.125 235.875 C-257.65191406 235.39667725 -257.17882812 234.91835449 -256.69140625 234.42553711 C-254.50535594 232.2184466 -252.31520871 230.01546367 -250.125 227.8125 C-249.38121094 227.06033203 -248.63742188 226.30816406 -247.87109375 225.53320312 C-244.40216697 222.04919405 -240.92078256 218.64230169 -237.1875 215.44140625 C-232.23740981 211.18298089 -227.70480383 206.5241948 -223.125 201.875 C-217.95328024 196.62492084 -212.7746079 191.50428228 -207.1796875 186.70703125 C-202.9751381 182.95810793 -199.07668016 178.8865541 -195.125 174.875 C-189.94320006 169.61468794 -184.75439118 164.48249253 -179.1484375 159.67578125 C-175.12686948 156.09674099 -171.39983014 152.21042131 -167.625 148.375 C-158.6713451 139.27762672 -158.6713451 139.27762672 -154.15625 135.40625 C-149.21332335 131.16311954 -144.69393643 126.51316274 -140.125 121.875 C-134.95328024 116.62492084 -129.7746079 111.50428228 -124.1796875 106.70703125 C-119.9751381 102.95810793 -116.07668016 98.8865541 -112.125 94.875 C-106.94320006 89.61468794 -101.75439118 84.48249253 -96.1484375 79.67578125 C-92.12686948 76.09674099 -88.39983014 72.21042131 -84.625 68.375 C-75.6713451 59.27762672 -75.6713451 59.27762672 -71.15625 55.40625 C-66.21332335 51.16311954 -61.69393643 46.51316274 -57.125 41.875 C-51.82740846 36.49714192 -46.54274186 31.20968132 -40.76757812 26.34155273 C-38.59292398 24.39994343 -36.83636739 22.22813016 -35.125 19.875 C-38.58707599 19.875 -40.95589371 20.70937165 -44.23730469 21.82421875 Z M-23.125 23.875 C-24.02863281 24.79023437 -24.93226563 25.70546875 -25.86328125 26.6484375 C-27.05455423 27.84909058 -28.24596783 29.04960415 -29.4375 30.25 C-30.03240234 30.85328125 -30.62730469 31.4565625 -31.24023438 32.078125 C-31.81708984 32.65820312 -32.39394531 33.23828125 -32.98828125 33.8359375 C-33.51719971 34.37009277 -34.04611816 34.90424805 -34.59106445 35.45458984 C-36.125 36.875 -36.125 36.875 -39.125 38.875 C-37.71784684 42.27562014 -36.09631772 43.76729698 -33.125 45.875 C-32.55652344 45.29492188 -31.98804688 44.71484375 -31.40234375 44.1171875 C-26.80768111 39.46883097 -22.154802 35.04866549 -17.125 30.875 C-18.51832574 27.50779613 -20.1039286 25.8890476 -23.125 23.875 Z M-48.125 47.875 C-53.405 53.155 -58.685 58.435 -64.125 63.875 C-62.3486068 68.1731424 -62.3486068 68.1731424 -58.125 70.875 C-52.845 65.595 -47.565 60.315 -42.125 54.875 C-43.9013932 50.5768576 -43.9013932 50.5768576 -48.125 47.875 Z M-75.72900391 74.25195312 C-76.34694824 74.88037109 -76.96489258 75.50878906 -77.6015625 76.15625 C-78.271875 76.83300781 -78.9421875 77.50976562 -79.6328125 78.20703125 C-80.68082031 79.28017578 -80.68082031 79.28017578 -81.75 80.375 C-82.45640625 81.09042969 -83.1628125 81.80585938 -83.890625 82.54296875 C-85.63995593 84.31593929 -87.38446536 86.09340011 -89.125 87.875 C-87.76562915 90.7355891 -86.47979531 92.73427699 -84.125 94.875 C-81.19269807 93.55379172 -79.13835101 92.12861803 -76.890625 89.8359375 C-76.31699219 89.25585938 -75.74335938 88.67578125 -75.15234375 88.078125 C-74.27255859 87.17320312 -74.27255859 87.17320312 -73.375 86.25 C-72.77300781 85.63898438 -72.17101562 85.02796875 -71.55078125 84.3984375 C-70.07094695 82.89511376 -68.59735324 81.38565144 -67.125 79.875 C-68.48739218 77.03276803 -69.67733169 74.91472359 -72.125 72.875 C-74.22440431 72.65787939 -74.22440431 72.65787939 -75.72900391 74.25195312 Z M-100.72900391 98.25195312 C-101.34694824 98.88037109 -101.96489258 99.50878906 -102.6015625 100.15625 C-103.271875 100.83300781 -103.9421875 101.50976562 -104.6328125 102.20703125 C-105.68082031 103.28017578 -105.68082031 103.28017578 -106.75 104.375 C-107.45640625 105.09042969 -108.1628125 105.80585938 -108.890625 106.54296875 C-110.63995593 108.31593929 -112.38446536 110.09340011 -114.125 111.875 C-112.76562915 114.7355891 -111.47979531 116.73427699 -109.125 118.875 C-105.13253281 117.27990081 -102.49299914 114.47082367 -99.5625 111.4375 C-99.08103516 110.94701172 -98.59957031 110.45652344 -98.10351562 109.95117188 C-96.77383309 108.59588335 -95.44922778 107.23561877 -94.125 105.875 C-93.12712088 104.87288361 -92.12837265 103.87161593 -91.125 102.875 C-92.0770721 101.86903703 -93.03687346 100.87038437 -94 99.875 C-94.80050781 99.0396875 -94.80050781 99.0396875 -95.6171875 98.1875 C-97.76930369 96.31415533 -98.57921445 96.40647177 -100.72900391 98.25195312 Z M-125.82080078 122.34375 C-126.48063965 123.0140625 -127.14047852 123.684375 -127.8203125 124.375 C-128.89345703 125.4578125 -128.89345703 125.4578125 -129.98828125 126.5625 C-131.10783203 127.7071875 -131.10783203 127.7071875 -132.25 128.875 C-133.00410156 129.638125 -133.75820313 130.40125 -134.53515625 131.1875 C-136.40296966 133.07895662 -138.26597267 134.97491362 -140.125 136.875 C-138.145 139.185 -136.165 141.495 -134.125 143.875 C-130.75206435 142.18853217 -129.19153006 141.18350283 -126.671875 138.6171875 C-126.053125 137.99199219 -125.434375 137.36679688 -124.796875 136.72265625 C-123.84554688 135.74619141 -123.84554688 135.74619141 -122.875 134.75 C-122.2253125 134.09128906 -121.575625 133.43257812 -120.90625 132.75390625 C-119.30788273 131.13203357 -117.71438103 129.5056719 -116.125 127.875 C-117.07617134 126.7024869 -118.03617009 125.53712985 -119 124.375 C-119.53367187 123.7253125 -120.06734375 123.075625 -120.6171875 122.40625 C-121.11476563 121.9009375 -121.61234375 121.395625 -122.125 120.875 C-124.24693881 120.65676993 -124.24693881 120.65676993 -125.82080078 122.34375 Z M-149.125 144.875 C-154.405 150.155 -159.685 155.435 -165.125 160.875 C-163.145 163.185 -161.165 165.495 -159.125 167.875 C-156.14821925 168.18775311 -156.14821925 168.18775311 -154.4074707 166.49804688 C-153.79476318 165.86962891 -153.18205566 165.24121094 -152.55078125 164.59375 C-151.55014648 163.57861328 -151.55014648 163.57861328 -150.52929688 162.54296875 C-149.83900391 161.82753906 -149.14871094 161.11210937 -148.4375 160.375 C-147.73560547 159.65957031 -147.03371094 158.94414062 -146.31054688 158.20703125 C-144.57513639 156.43620423 -142.8470927 154.65876544 -141.125 152.875 C-142.07921808 151.72573734 -143.03852045 150.58069459 -144 149.4375 C-144.53367187 148.79941406 -145.06734375 148.16132813 -145.6171875 147.50390625 C-147.0472757 145.76694996 -147.0472757 145.76694996 -149.125 144.875 Z M-184.125 178.875 C-186.22580476 181.14881221 -188.17729231 183.46599312 -190.125 185.875 C-187.815 188.185 -185.505 190.495 -183.125 192.875 C-177.09168638 187.89095832 -171.6065829 182.45584697 -166.125 176.875 C-167.07617134 175.7024869 -168.03617009 174.53712985 -169 173.375 C-169.53367187 172.7253125 -170.06734375 172.075625 -170.6171875 171.40625 C-171.11476563 170.9009375 -171.61234375 170.395625 -172.125 169.875 C-176.67402287 169.875 -181.00295361 175.85797657 -184.125 178.875 Z M2.875 168.875 C0.66692337 170.03161157 -1.35177434 171.10177434 -3.125 172.875 C-3.19679964 174.39428038 -3.20892007 175.91667482 -3.1875 177.4375 C-3.166875 178.901875 -3.14625 180.36625 -3.125 181.875 C1.165 181.875 5.455 181.875 9.875 181.875 C9.771875 180.451875 9.66875 179.02875 9.5625 177.5625 C9.50449219 176.76199219 9.44648438 175.96148437 9.38671875 175.13671875 C8.78000435 172.45513375 8.03137846 171.5396627 5.875 169.875 C4.885 169.545 3.895 169.215 2.875 168.875 Z M-205.5625 199.625 C-206.14837891 200.16382813 -206.73425781 200.70265625 -207.33789062 201.2578125 C-210.31832692 204.03188488 -212.64675705 206.57067606 -215.125 209.875 C-212.815 212.515 -210.505 215.155 -208.125 217.875 C-202.09168638 212.89095832 -196.6065829 207.45584697 -191.125 201.875 C-192.68877499 198.55197814 -194.33853151 196.31315993 -197.125 193.875 C-200.71138961 193.875 -203.05628576 197.26943251 -205.5625 199.625 Z M-386.125 213.875 C-384.64587784 217.76472678 -382.88095578 221.4164745 -380.96484375 225.109375 C-380.65866119 225.70081802 -380.35247864 226.29226105 -380.03701782 226.90162659 C-379.04786106 228.81064698 -378.05529246 230.71786821 -377.0625 232.625 C-376.38325961 233.9337743 -375.70414219 235.24261241 -375.02514648 236.55151367 C-370.10921205 246.01957467 -365.15029949 255.46447981 -360.125 264.875 C-356.165 264.875 -352.205 264.875 -348.125 264.875 C-351.00278574 259.56004644 -354.2740281 254.8748945 -358 250.125 C-363.533781 242.98379116 -368.93690135 235.75734209 -374.27880859 228.47167969 C-375.89219646 226.27130237 -377.50833546 224.07297056 -379.125 221.875 C-379.68848145 221.10430176 -380.25196289 220.33360352 -380.83251953 219.53955078 C-381.37376465 218.80591309 -381.91500977 218.07227539 -382.47265625 217.31640625 C-383.20174194 216.32362671 -383.20174194 216.32362671 -383.94555664 215.31079102 C-384.33477295 214.83697998 -384.72398926 214.36316895 -385.125 213.875 C-385.455 213.875 -385.785 213.875 -386.125 213.875 Z M-225.5703125 219.16015625 C-226.40175781 220.03994141 -226.40175781 220.03994141 -227.25 220.9375 C-230.50043607 224.31795351 -233.95229092 227.28227684 -237.62109375 230.19921875 C-239.57027316 231.99588471 -239.57027316 231.99588471 -239.125 235.875 C-237.8437757 237.63817705 -237.8437757 237.63817705 -236.125 239.125 C-235.568125 239.64578125 -235.01125 240.1665625 -234.4375 240.703125 C-234.004375 241.08984375 -233.57125 241.4765625 -233.125 241.875 C-230.19269807 240.55379172 -228.13835101 239.12861803 -225.890625 236.8359375 C-225.31699219 236.25585938 -224.74335938 235.67578125 -224.15234375 235.078125 C-223.27255859 234.17320312 -223.27255859 234.17320312 -222.375 233.25 C-221.77300781 232.63898438 -221.17101562 232.02796875 -220.55078125 231.3984375 C-219.07094695 229.89511376 -217.59735324 228.38565144 -216.125 226.875 C-217.56957516 222.98625527 -218.91616043 220.58245839 -222.125 217.875 C-224.19824261 217.6535036 -224.19824261 217.6535036 -225.5703125 219.16015625 Z M-249.125 241.875 C-251.29141665 243.54045339 -251.29141665 243.54045339 -253.125 245.875 C-253.01660368 249.99406004 -251.04146857 253.29203702 -249.125 256.875 C-245.75908134 255.43246343 -243.61452921 253.54235273 -241.125 250.875 C-242.7080577 246.6007442 -245.63068404 244.60968206 -249.125 241.875 Z M-331.125 242.875 C-331.125 267.625 -331.125 292.375 -331.125 317.875 C-303.735 317.875 -276.345 317.875 -248.125 317.875 C-246.40497296 287.34772427 -246.40497296 287.34772427 -256.4375 262.375 C-257.23843781 261.00033152 -258.03203822 259.62136254 -258.81835938 258.23828125 C-260.83651144 254.72876434 -262.96283988 251.29802683 -265.125 247.875 C-265.53290771 246.99963089 -265.94081543 246.12426178 -266.36108398 245.22236633 C-267.92898679 242.60404726 -267.92898679 242.60404726 -270.87748718 242.27372742 C-272.54627678 242.290382 -272.54627678 242.290382 -274.2487793 242.30737305 C-275.52748901 242.30797729 -276.80619873 242.30858154 -278.12365723 242.3092041 C-279.48219014 242.33438182 -280.84071107 242.36021472 -282.19921875 242.38671875 C-283.43466431 242.39175415 -284.67010986 242.39678955 -285.94299316 242.40197754 C-290.56639752 242.42817527 -295.1894716 242.497982 -299.8125 242.5625 C-310.145625 242.665625 -320.47875 242.76875 -331.125 242.875 Z M-482.125 275.875 C-482.125 289.735 -482.125 303.595 -482.125 317.875 C-475.525 317.875 -468.925 317.875 -462.125 317.875 C-462.125 304.015 -462.125 290.155 -462.125 275.875 C-468.725 275.875 -475.325 275.875 -482.125 275.875 Z M-451.125 275.875 C-451.125 289.735 -451.125 303.595 -451.125 317.875 C-444.525 317.875 -437.925 317.875 -431.125 317.875 C-431.125 304.015 -431.125 290.155 -431.125 275.875 C-437.725 275.875 -444.325 275.875 -451.125 275.875 Z M-421.125 275.875 C-421.125 289.735 -421.125 303.595 -421.125 317.875 C-414.525 317.875 -407.925 317.875 -401.125 317.875 C-401.125 304.015 -401.125 290.155 -401.125 275.875 C-407.725 275.875 -414.325 275.875 -421.125 275.875 Z M-390.125 275.875 C-390.125 289.735 -390.125 303.595 -390.125 317.875 C-374.285 317.875 -358.445 317.875 -342.125 317.875 C-342.125 304.015 -342.125 290.155 -342.125 275.875 C-357.965 275.875 -373.805 275.875 -390.125 275.875 Z M-353.125 328.875 C-353.125 330.855 -353.125 332.835 -353.125 334.875 C-325.405 334.875 -297.685 334.875 -269.125 334.875 C-269.125 332.895 -269.125 330.915 -269.125 328.875 C-296.845 328.875 -324.565 328.875 -353.125 328.875 Z M-412 352.25 C-413.38284626 355.47664126 -413.62259088 357.39186382 -413.125 360.875 C-410.78205966 365.30055398 -408.5968331 367.67979894 -404.125 369.875 C-401.16019481 370.30529416 -401.16019481 370.30529416 -397.95776367 370.21557617 C-396.73687546 370.21534958 -395.51598724 370.21512299 -394.25810242 370.21488953 C-392.94960831 370.19940567 -391.6411142 370.18392181 -390.29296875 370.16796875 C-388.93248463 370.16236884 -387.57199443 370.1581006 -386.21150208 370.15510559 C-382.64229433 370.14368776 -379.07345671 370.11424765 -375.50439453 370.08099365 C-371.85779832 370.05022626 -368.21114191 370.03658606 -364.56445312 370.02148438 C-357.41780347 369.98937442 -350.27146493 369.93663198 -343.125 369.875 C-343.125 361.955 -343.125 354.035 -343.125 345.875 C-350.97475748 345.78447676 -358.82422754 345.71115661 -366.67436409 345.66775131 C-370.3198912 345.64691429 -373.96504136 345.61866916 -377.61035156 345.57324219 C-381.13114987 345.52964357 -384.65158661 345.50583369 -388.17263412 345.49549103 C-390.16347947 345.48454994 -392.15418022 345.45334601 -394.14480591 345.42181396 C-402.25123735 345.4198078 -406.80272579 345.666786 -412 352.25 Z M-332.125 345.875 C-332.125 353.795 -332.125 361.715 -332.125 369.875 C-316.945 369.875 -301.765 369.875 -286.125 369.875 C-286.125 361.955 -286.125 354.035 -286.125 345.875 C-301.305 345.875 -316.485 345.875 -332.125 345.875 Z M-275.125 345.875 C-275.125 353.795 -275.125 361.715 -275.125 369.875 C-267.25795848 369.94284632 -259.39107758 369.9978566 -251.52382374 370.03043652 C-247.87050802 370.04607533 -244.21740329 370.06728048 -240.56420898 370.10131836 C-237.03694784 370.13397625 -233.50988932 370.15186644 -229.98248863 370.15963173 C-227.98555692 370.16785133 -225.98870642 370.19126061 -223.99189758 370.21488953 C-222.16056526 370.21522942 -222.16056526 370.21522942 -220.29223633 370.21557617 C-218.68340324 370.22556892 -218.68340324 370.22556892 -217.04206848 370.23576355 C-212.59613004 369.68591957 -210.01095509 367.71306563 -206.8125 364.6875 C-204.63017558 361.05029263 -204.18981343 357.95944734 -205.125 353.875 C-207.23456798 350.08111292 -210.0696666 347.43746608 -214.125 345.875 C-216.99478674 345.58605004 -216.99478674 345.58605004 -220.17871094 345.64794922 C-221.39967468 345.64810028 -222.62063843 345.64825134 -223.87860107 345.64840698 C-225.84908417 345.66389084 -225.84908417 345.66389084 -227.859375 345.6796875 C-229.22129102 345.68341958 -230.58320973 345.68626563 -231.94512939 345.68826294 C-235.52247586 345.69588406 -239.09965885 345.71551931 -242.67694092 345.7376709 C-246.3301777 345.75816222 -249.98344101 345.76727167 -253.63671875 345.77734375 C-260.79956217 345.79876681 -267.96223732 345.83393636 -275.125 345.875 Z " fill="#000000" transform="translate(492.125,66.125)"/>
<path d="M0 0 C1.49853516 -0.00580078 1.49853516 -0.00580078 3.02734375 -0.01171875 C4.57615234 0.00568359 4.57615234 0.00568359 6.15625 0.0234375 C7.18878906 0.01183594 8.22132813 0.00023437 9.28515625 -0.01171875 C10.28417969 -0.00785156 11.28320312 -0.00398438 12.3125 0 C13.21806641 0.00338379 14.12363281 0.00676758 15.05664062 0.01025391 C19.25169422 0.63667532 21.7719352 2.29981766 24.41723633 5.58618164 C33.04742396 19.85449029 36.90545112 31.34093547 36.59375 47.8984375 C36.57970123 48.65730255 36.56565247 49.4161676 36.55117798 50.19802856 C36.22711527 62.82757223 36.22711527 62.82757223 33.65625 65.3984375 C30.60619553 65.61088944 27.64930373 65.70238979 24.59765625 65.69921875 C23.69756332 65.70350388 22.7974704 65.707789 21.87010193 65.71220398 C19.96443524 65.7179528 18.05874661 65.71844349 16.15307617 65.71411133 C13.2338319 65.71095381 10.31560306 65.73439484 7.39648438 65.75976562 C5.54687628 65.76203877 3.69726546 65.76274204 1.84765625 65.76171875 C0.53505577 65.77553337 0.53505577 65.77553337 -0.80406189 65.78962708 C-1.61823074 65.78339828 -2.4323996 65.77716949 -3.27124023 65.77075195 C-3.98690659 65.77138138 -4.70257294 65.7720108 -5.43992615 65.7726593 C-8.01675575 65.2661493 -8.84838238 64.55444172 -10.34375 62.3984375 C-10.73815918 59.81799316 -10.73815918 59.81799316 -10.76367188 56.68945312 C-10.77958374 55.51813843 -10.79549561 54.34682373 -10.81188965 53.14001465 C-10.81209106 51.87435669 -10.81229248 50.60869873 -10.8125 49.3046875 C-10.82011353 48.00648071 -10.82772705 46.70827393 -10.83557129 45.37072754 C-10.84901578 42.62352864 -10.85058486 39.87661712 -10.84472656 37.12939453 C-10.83882511 33.60815858 -10.86943693 30.08829895 -10.90984344 26.56732941 C-10.94189888 23.20890367 -10.93760422 19.85076594 -10.9375 16.4921875 C-10.95389526 15.22652954 -10.97029053 13.96087158 -10.98718262 12.65686035 C-10.9778772 11.48554565 -10.96857178 10.31423096 -10.95898438 9.10742188 C-10.96103882 8.07500366 -10.96309326 7.04258545 -10.96520996 5.97888184 C-10.34375 3.3984375 -10.34375 3.3984375 -7.96777344 1.56588745 C-5.09450333 0.28754558 -3.13209537 0.01170356 0 0 Z M0.65625 11.3984375 C0.65625 16.0184375 0.65625 20.6384375 0.65625 25.3984375 C7.25625 25.3984375 13.85625 25.3984375 20.65625 25.3984375 C18.34625 20.7784375 16.03625 16.1584375 13.65625 11.3984375 C9.36625 11.3984375 5.07625 11.3984375 0.65625 11.3984375 Z M0.65625 35.3984375 C0.65625 41.6684375 0.65625 47.9384375 0.65625 54.3984375 C8.57625 54.3984375 16.49625 54.3984375 24.65625 54.3984375 C24.65625 48.1284375 24.65625 41.8584375 24.65625 35.3984375 C16.73625 35.3984375 8.81625 35.3984375 0.65625 35.3984375 Z " fill="#000000" transform="translate(199.34375,312.6015625)"/>
</svg>
